# xmcd
#
# Track frame offsets:
#	150
#	16605
#	27784
#	48893
#	68193
#	93951
#	112903
#	129759
#	144110
#	163459
#	176403
#	193468
#	225046
#	234626
#	258213
#
# Disc length: 3924 seconds
#
# Revision: 1
# Processed by: cddbd v1.5.2PL0 Copyright (c) Steve Scherf et al.
# Submitted via: audiograbber 1.83.01
#
DISCID=b00f520f
DTITLE=Murphey Michael Martin - Cowboy Classics  
DYEAR=2013
DGENRE=Country
TTITLE0=I Ride An Old Paint
TTITLE1=Whoopie Ti-Yi-Yo
TTITLE2=The Old Chisolm Trail
TTITLE3=Strawberry Rpam
TTITLE4=Red River Valley
TTITLE5=Little Joe The Wrangler
TTITLE6=The Colorado Trail
TTITLE7=Tying Knots In The Devil's Tail
TTITLE8=When The Work's All Done This Fall
TTITLE9=The Yellow Rose Of Texas
TTITLE10=Utah Carroll
TTITLE11=The Streets Of Loredo
TTITLE12=The Bunkhouse Orchestra
TTITLE13=Old Horse
TTITLE14=Night Hawk
EXTD=
EXTT0=
EXTT1=
EXTT2=
EXTT3=
EXTT4=
EXTT5=
EXTT6=
EXTT7=
EXTT8=
EXTT9=
EXTT10=
EXTT11=
EXTT12=
EXTT13=
EXTT14=
PLAYORDER=
